<?xml version="1.0" encoding="UTF-8" standalone="no"?>
<!DOCTYPE svg PUBLIC "-//W3C//DTD SVG 1.1//EN" "http://www.w3.org/Graphics/SVG/1.1/DTD/svg11.dtd">
<svg width="100%" height="100%" viewBox="0 0 122 210" version="1.1" xmlns="http://www.w3.org/2000/svg"
    xmlns:xlink="http://www.w3.org/1999/xlink" xml:space="preserve" xmlns:serif="http://www.serif.com/"
    style="fill-rule:evenodd;clip-rule:evenodd;stroke-linecap:round;stroke-linejoin:round;stroke-miterlimit:1.5;">
    <g transform="matrix(0.470106,0,0,0.470106,-255.963,-50.3305)">
        <path
            d="M674.654,342.819C672.522,342.819 670.928,342.193 669.874,340.943C668.82,339.693 668.293,338.173 668.293,336.384C668.293,334.594 668.845,333.087 669.948,331.861C671.051,330.635 672.607,330.022 674.617,330.022C676.628,330.022 678.221,330.537 679.398,331.567C680.574,332.596 681.163,334.141 681.163,336.2C681.163,338.259 680.611,339.877 679.508,341.054C678.405,342.23 676.787,342.819 674.654,342.819Z"
            style="fill-rule:nonzero;" />
    </g>
    <g transform="matrix(1,0,0,1,-203.4,-200.015)">
        <path
            d="M241.418,242.668L267.893,242.668L267.893,244.286L260.098,244.286L260.098,292.528L262.745,292.528C266.912,292.528 270.234,291.254 272.71,288.704C275.186,286.155 277.698,282.233 280.248,276.938L281.792,276.938L280.395,294.146L241.418,294.146L241.418,292.528L245.757,292.528L245.757,244.286L241.418,244.286L241.418,242.668Z"
            style="fill-rule:nonzero;" />
    </g>
    <g transform="matrix(1,0,0,1,-213.703,-168.868)">
        <path
            d="M293.272,289.895L293.272,339.976L282.976,339.976L257.752,292.395L257.752,338.579L261.796,338.579L261.796,339.976L251.721,339.976L251.721,338.579L255.766,338.579L255.766,289.895L251.721,289.895L251.721,288.498L272.018,288.498L291.286,325.415L291.286,289.895L287.241,289.895L287.241,288.498L297.316,288.498L297.316,289.895L293.272,289.895Z"
            style="fill-rule:nonzero;" />
    </g>
    <g transform="matrix(1.10289,0,0,0.998331,-210.24,-169.875)">
        <path
            d="M298.194,232.261C298.194,200.297 274.703,174.345 245.769,174.345C216.834,174.345 193.344,200.297 193.344,232.261L193.344,318.375C193.344,350.34 216.834,376.291 245.769,376.291C274.703,376.291 298.194,350.34 298.194,318.375L298.194,232.261Z"
            style="fill:none;stroke:black;stroke-width:0.95px;" />
    </g>
    <g transform="matrix(1.15053,0,0,1.03477,-221.947,-179.908)">
        <path
            d="M298.194,232.635C298.194,200.464 274.703,174.345 245.769,174.345C216.834,174.345 193.344,200.464 193.344,232.635L193.344,318.001C193.344,350.172 216.834,376.291 245.769,376.291C274.703,376.291 298.194,350.172 298.194,318.001L298.194,232.635Z"
            style="fill:none;stroke:black;stroke-width:0.91px;" />
    </g>
</svg>